# xmcd
#
# Track frame offsets:
#	150
#	14236
#	34810
#	63139
#
# Disc length: 1152 seconds
#
# Revision: 1
# Processed by: cddbd v1.5.1PL0 Copyright (c) Steve Scherf et al.
# Submitted via: CDex 1.50Beta5
#
DISCID=2f047e04
DTITLE=dorlis - マーブルの月
DYEAR=1900
DGENRE=Bop
TTITLE0=マーブルの月
TTITLE1=５日目の笑顔
TTITLE2=Just A Little
TTITLE3=Untitled
EXTD=
EXTT0=
EXTT1=
EXTT2=
EXTT3=
PLAYORDER=
